<svg width="278" height="287" viewBox="0 0 278 287" fill="none" xmlns="http://www.w3.org/2000/svg">
<g clip-path="url(#clip0_672_421)">
<path d="M151.526 245.569C195.908 253.126 238.013 223.274 245.57 178.892C253.127 134.509 223.274 92.4045 178.892 84.8474C134.51 77.2903 92.405 107.143 84.8479 151.525C77.2909 195.907 107.143 238.012 151.526 245.569Z" stroke="#79C1F8" stroke-width="2" stroke-miterlimit="10"/>
<path d="M189.374 272.216C248.47 258.874 285.561 200.151 272.219 141.055C258.877 81.9582 200.154 44.8671 141.058 58.2092C81.9617 71.5513 44.8706 130.274 58.2126 189.37C71.5547 248.467 130.278 285.558 189.374 272.216Z" stroke="#79C1F8" stroke-width="2" stroke-miterlimit="10"/>
<path d="M149.162 259.46C97.1914 250.611 62.1103 201.131 70.9594 149.161C79.8086 97.1905 129.288 62.1094 181.259 70.9586C233.229 79.8077 268.309 129.287 259.46 181.258C250.611 233.228 201.131 268.309 149.162 259.46Z" stroke="#79C1F8" stroke-width="2" stroke-miterlimit="10"/>
<path d="M151.526 245.569C195.908 253.126 238.013 223.274 245.57 178.892C253.127 134.509 223.274 92.4045 178.892 84.8474C134.51 77.2903 92.405 107.143 84.8479 151.525C77.2909 195.907 107.143 238.012 151.526 245.569Z" stroke="#79C1F8" stroke-width="2" stroke-miterlimit="10"/>
<path d="M154.072 230.67C190.223 236.825 224.52 212.509 230.675 176.358C236.831 140.207 212.515 105.911 176.364 99.755C140.212 93.5994 105.916 117.916 99.7606 154.067C93.6051 190.218 117.921 224.514 154.072 230.67Z" stroke="#79C1F8" stroke-width="2" stroke-miterlimit="10"/>
<path d="M156.39 217.017C185.001 221.889 212.144 202.644 217.016 174.033C221.888 145.422 202.643 118.279 174.032 113.407C145.421 108.535 118.277 127.78 113.406 156.391C108.534 185.002 127.779 212.146 156.39 217.017Z" stroke="#79C1F8" stroke-width="2" stroke-miterlimit="10"/>
</g>
<defs>
<clipPath id="clip0_672_421">
<rect width="330" height="287" fill="white"/>
</clipPath>
</defs>
</svg>
