<svg width="287" height="287" viewBox="0 0 287 287" fill="none" xmlns="http://www.w3.org/2000/svg">
<path d="M143.206 224.724C188.227 224.724 224.724 188.227 224.724 143.206C224.724 98.1851 188.227 61.6885 143.206 61.6885C98.1854 61.6885 61.6887 98.1851 61.6887 143.206C61.6887 188.227 98.1854 224.724 143.206 224.724Z" stroke="#FF9D32" stroke-width="2" stroke-miterlimit="10"/>
<path d="M184.983 244.636C241.001 221.564 267.709 157.448 244.636 101.43C221.564 45.4115 157.448 18.7038 101.43 41.7763C45.4118 64.8488 18.7039 128.964 41.7764 184.983C64.849 241.001 128.965 267.709 184.983 244.636Z" stroke="#FF9D32" stroke-width="2" stroke-miterlimit="10"/>
<path d="M143.207 238.814C90.4882 238.814 47.5993 195.924 47.5993 143.206C47.5993 90.4875 90.4882 47.5986 143.207 47.5986C195.925 47.5986 238.813 90.4875 238.813 143.206C238.813 195.924 195.924 238.814 143.207 238.814Z" stroke="#FF9D32" stroke-width="2" stroke-miterlimit="10"/>
<path d="M143.206 224.724C188.227 224.724 224.724 188.227 224.724 143.206C224.724 98.1851 188.227 61.6885 143.206 61.6885C98.1854 61.6885 61.6887 98.1851 61.6887 143.206C61.6887 188.227 98.1854 224.724 143.206 224.724Z" stroke="#FF9D32" stroke-width="2" stroke-miterlimit="10"/>
<path d="M143.206 209.606C179.878 209.606 209.606 179.878 209.606 143.206C209.606 106.535 179.878 76.8066 143.206 76.8066C106.535 76.8066 76.8068 106.535 76.8068 143.206C76.8068 179.878 106.535 209.606 143.206 209.606Z" stroke="#FF9D32" stroke-width="2" stroke-miterlimit="10"/>
<path d="M143.206 195.757C172.229 195.757 195.757 172.229 195.757 143.206C195.757 114.183 172.229 90.6553 143.206 90.6553C114.183 90.6553 90.6554 114.183 90.6554 143.206C90.6554 172.229 114.183 195.757 143.206 195.757Z" stroke="#FF9D32" stroke-width="2" stroke-miterlimit="10"/>
</svg>
