<svg width="1292" height="470" viewBox="0 0 1292 470" fill="none" xmlns="http://www.w3.org/2000/svg">
<g style="mix-blend-mode:color-burn" opacity="0.22" clip-path="url(#clip0_1171_2535)">
<g opacity="0.5">
<path opacity="0.52" d="M131.203 170.392C140.484 157.731 159.39 157.731 168.671 170.392L442.448 543.86C453.696 559.204 442.739 580.822 423.714 580.822H-123.84C-142.865 580.822 -153.822 559.204 -142.574 543.86L131.203 170.392Z" fill="black"/>
<path opacity="0.85" d="M793.217 97.2315C802.497 84.5711 821.404 84.5711 830.685 97.2315L1104.46 470.7C1115.71 486.044 1104.75 507.662 1085.73 507.662H538.173C519.149 507.662 508.191 486.044 519.439 470.7L793.217 97.2315Z" fill="black"/>
<path opacity="0.53" d="M-228.684 203.509C-219.403 190.848 -200.497 190.848 -191.216 203.509L82.5614 576.977C93.8093 592.321 82.8521 613.939 63.8273 613.939H-483.727C-502.752 613.939 -513.709 592.321 -502.461 576.977L-228.684 203.509Z" fill="black"/>
<path opacity="0.47" d="M338.162 29.059C347.354 15.2461 367.646 15.2461 376.838 29.059L778.182 632.152C788.456 647.59 777.388 668.25 758.844 668.25H-43.8439C-62.3879 668.25 -73.4555 647.59 -63.182 632.152L338.162 29.059Z" fill="black"/>
<path opacity="0.47" d="M-68.6428 112.407C-61.0928 99.3474 -42.2407 99.3474 -34.6907 112.407L264.397 629.745C271.955 642.817 262.521 659.168 247.421 659.168H-350.754C-365.854 659.168 -375.288 642.817 -367.73 629.744L-68.6428 112.407Z" fill="black"/>
<g opacity="0.72">
<path d="M750.139 235.379C759.753 223.838 777.477 223.838 787.091 235.379L1066.63 570.944C1079.68 586.608 1068.54 610.383 1048.15 610.383H489.079C468.693 610.383 457.555 586.608 470.603 570.944L750.139 235.379Z" fill="black"/>
<path opacity="0.79" d="M1435.47 168.73C1445.09 157.189 1462.81 157.189 1472.43 168.73L1751.96 504.296C1765.01 519.959 1753.87 543.734 1733.49 543.734H1174.41C1154.03 543.734 1142.89 519.959 1155.94 504.296L1435.47 168.73Z" fill="black"/>
<path d="M377.575 265.551C387.189 254.01 404.913 254.009 414.527 265.551L694.063 601.116C707.111 616.78 695.973 640.554 675.587 640.554H116.514C96.1285 640.554 84.9903 616.78 98.0382 601.116L377.575 265.551Z" fill="black"/>
<path d="M1105.71 31.6011C1115.24 17.4534 1136.07 17.4534 1145.6 31.601L1560.73 647.767C1571.49 663.739 1560.04 685.25 1540.78 685.25H710.528C691.269 685.25 679.824 663.739 690.585 647.767L1105.71 31.6011Z" fill="black"/>
<path opacity="0.86" d="M542.945 182.735C550.963 170.53 568.859 170.53 576.877 182.735L884.06 650.314C892.928 663.813 883.245 681.76 867.094 681.76H252.728C236.577 681.76 226.894 663.813 235.762 650.314L542.945 182.735Z" fill="black"/>
</g>
</g>
</g>
<defs>
<clipPath id="clip0_1171_2535">
<rect width="2415" height="473" fill="white" transform="translate(-579)"/>
</clipPath>
</defs>
</svg>
