<svg width="1920" height="1286" viewBox="0 0 1920 1286" fill="none" xmlns="http://www.w3.org/2000/svg">
<rect y="658" width="1920" height="420" fill="#79C1F8"/>
<rect width="1920" height="658" fill="#FFE4A4"/>
<path d="M1631 1231.98C1714.94 1231.98 1782.98 1163.94 1782.98 1080C1782.98 996.058 1714.94 928.012 1631 928.012C1547.06 928.012 1479.01 996.058 1479.01 1080C1479.01 1163.94 1547.06 1231.98 1631 1231.98Z" stroke="white" stroke-width="2" stroke-miterlimit="10"/>
<path d="M1708.89 1269.11C1813.33 1226.09 1863.13 1106.55 1820.11 1002.11C1777.09 897.669 1657.55 847.874 1553.11 890.892C1448.67 933.909 1398.87 1053.45 1441.89 1157.89C1484.91 1262.33 1604.45 1312.13 1708.89 1269.11Z" stroke="white" stroke-width="2" stroke-miterlimit="10"/>
<path d="M1631 1231.98C1714.94 1231.98 1782.98 1163.94 1782.98 1080C1782.98 996.058 1714.94 928.012 1631 928.012C1547.06 928.012 1479.01 996.058 1479.01 1080C1479.01 1163.94 1547.06 1231.98 1631 1231.98Z" stroke="white" stroke-width="2" stroke-miterlimit="10"/>
<path d="M1631 1177.98C1685.11 1177.98 1728.98 1134.11 1728.98 1080C1728.98 1025.89 1685.11 982.02 1631 982.02C1576.89 982.02 1533.02 1025.89 1533.02 1080C1533.02 1134.11 1576.89 1177.98 1631 1177.98Z" stroke="white" stroke-width="2" stroke-miterlimit="10"/>
<path d="M281.996 805.588C365.935 805.588 433.981 740.366 433.981 659.912C433.981 579.457 365.935 514.236 281.996 514.236C198.058 514.236 130.012 579.457 130.012 659.912C130.012 740.366 198.058 805.588 281.996 805.588Z" stroke="white" stroke-width="2" stroke-miterlimit="10"/>
<path d="M359.89 841.177C464.332 799.946 514.128 685.368 471.11 585.26C428.093 485.153 308.553 437.425 204.11 478.656C99.6675 519.888 49.8724 634.466 92.8897 734.573C135.907 834.681 255.447 882.409 359.89 841.177Z" stroke="white" stroke-width="2" stroke-miterlimit="10"/>
<path d="M281.996 805.588C365.935 805.588 433.981 740.366 433.981 659.912C433.981 579.457 365.935 514.236 281.996 514.236C198.058 514.236 130.012 579.457 130.012 659.912C130.012 740.366 198.058 805.588 281.996 805.588Z" stroke="white" stroke-width="2" stroke-miterlimit="10"/>
<path d="M282.001 753.824C336.113 753.824 379.98 711.779 379.98 659.913C379.98 608.047 336.113 566.002 282.001 566.002C227.89 566.002 184.023 608.047 184.023 659.913C184.023 711.779 227.89 753.824 282.001 753.824Z" stroke="white" stroke-width="2" stroke-miterlimit="10"/>
<path d="M1668 442.159C1709.63 442.159 1743.37 409.813 1743.37 369.914C1743.37 330.014 1709.63 297.668 1668 297.668C1626.37 297.668 1592.62 330.014 1592.62 369.914C1592.62 409.813 1626.37 442.159 1668 442.159Z" stroke="white" stroke-width="2" stroke-miterlimit="10"/>
<path d="M1706.63 459.809C1758.42 439.361 1783.12 382.538 1761.79 332.892C1740.45 283.246 1681.17 259.576 1629.37 280.024C1577.58 300.472 1552.88 357.295 1574.21 406.941C1595.55 456.587 1654.83 480.257 1706.63 459.809Z" stroke="white" stroke-width="2" stroke-miterlimit="10"/>
<path d="M1668 442.159C1709.63 442.159 1743.37 409.813 1743.37 369.914C1743.37 330.014 1709.63 297.668 1668 297.668C1626.37 297.668 1592.62 330.014 1592.62 369.914C1592.62 409.813 1626.37 442.159 1668 442.159Z" stroke="white" stroke-width="2" stroke-miterlimit="10"/>
<path d="M1668 416.487C1694.84 416.487 1716.59 395.635 1716.59 369.914C1716.59 344.192 1694.84 323.34 1668 323.34C1641.17 323.34 1619.41 344.192 1619.41 369.914C1619.41 395.635 1641.17 416.487 1668 416.487Z" stroke="white" stroke-width="2" stroke-miterlimit="10"/>
</svg>
